<svg width="20" height="20" viewBox="0 0 20 20" fill="none" xmlns="http://www.w3.org/2000/svg">
<path d="M12.5 12.5C13.8807 12.5 15 11.3807 15 10C15 8.61929 13.8807 7.5 12.5 7.5C11.1193 7.5 10 8.61929 10 10C10 11.3807 11.1193 12.5 12.5 12.5Z" stroke="#4B4B4B" stroke-width="1.25" stroke-linecap="round" stroke-linejoin="round"/>
<path d="M12.5 2.5H7.5C6.11929 2.5 5 3.61929 5 5C5 6.38071 6.11929 7.5 7.5 7.5H12.5C13.8807 7.5 15 6.38071 15 5C15 3.61929 13.8807 2.5 12.5 2.5Z" stroke="#4B4B4B" stroke-width="1.25" stroke-linecap="round" stroke-linejoin="round"/>
<path d="M7.5 12.5C6.83696 12.5 6.20107 12.2366 5.73223 11.7678C5.26339 11.2989 5 10.663 5 10C5 9.33696 5.26339 8.70107 5.73223 8.23223C6.20107 7.76339 9.33696 8 10 8L10 12.5H7.5ZM7.5 12.5C7.00555 12.5 6.5222 12.6466 6.11108 12.9213C5.69995 13.196 5.37952 13.5865 5.1903 14.0433C5.00108 14.5001 4.95157 15.0028 5.04804 15.4877C5.1445 15.9727 5.3826 16.4181 5.73223 16.7678C6.08187 17.1174 6.52732 17.3555 7.01227 17.452C7.49723 17.5484 7.99989 17.4989 8.45671 17.3097C8.91352 17.1205 9.30397 16.8 9.57867 16.3889C9.85338 15.9778 10 15.4945 10 15V2.5" stroke="#4B4B4B" stroke-width="1.25" stroke-linecap="round" stroke-linejoin="round"/>
</svg>
