<svg width="20" height="20" viewBox="0 0 20 20" fill="none" xmlns="http://www.w3.org/2000/svg">
<path d="M12.5 17.5V14.5834C12.5 13.75 12.5833 13.4167 12.0833 12.9167C14.4167 12.6667 16.6667 11.75 16.6667 7.91669C16.6657 6.92082 16.2771 5.96444 15.5833 5.25002C15.9087 4.38499 15.8788 3.42638 15.5 2.58335C15.5 2.58335 14.5833 2.33335 12.5833 3.66669C10.8894 3.22551 9.11063 3.22551 7.41667 3.66669C5.41667 2.33335 4.5 2.58335 4.5 2.58335C4.12123 3.42638 4.09128 4.38499 4.41667 5.25002C3.72288 5.96444 3.33435 6.92082 3.33333 7.91669C3.33333 11.75 5.58333 12.6667 7.91667 12.9167C7.41667 13.4167 7.41667 13.9167 7.5 14.5834V17.5M7.5 15.8334C3.91667 17 3.91667 13.75 2.5 13.3334L7.5 15.8334Z" stroke="#4B4B4B" stroke-width="1.25" stroke-linecap="round" stroke-linejoin="round"/>
</svg>
