<svg width="20" height="20" viewBox="0 0 20 20" fill="none" xmlns="http://www.w3.org/2000/svg">
<path d="M18.3333 3.34168C17.5 3.75001 16.6833 3.91584 15.8333 4.16668C14.8991 3.11251 13.5141 3.05418 12.1833 3.55251C10.8525 4.05084 9.98079 5.26918 9.99996 6.66668V7.50001C7.29579 7.56918 4.88746 6.33751 3.33329 4.16668C3.33329 4.16668 -0.151707 10.3608 6.66663 13.3333C5.10663 14.3725 3.55079 15.0733 1.66663 15C4.42329 16.5025 7.42746 17.0192 10.0283 16.2642C13.0116 15.3975 15.4633 13.1617 16.4041 9.81251C16.6848 8.7939 16.8241 7.74156 16.8183 6.68501C16.8166 6.47751 18.0766 4.37501 18.3333 3.34084V3.34168Z" stroke="#4B4B4B" stroke-width="1.25" stroke-linecap="round" stroke-linejoin="round"/>
</svg>
